<svg xmlns="http://www.w3.org/2000/svg" viewBox="198.334 139.998 303.3 265.1">
  <path d="M361.23 163.33c77.559 0 140.44 62.879 140.44 140.44 0 37.215-14.562 72.461-39.836 98.426l-2.852 2.848-16.242-16.754-22.973-22.957 16.5-16.5 21.547 21.555c11.117-16.273 18.086-35.31 19.988-55.38l-22.8-.007v-23.332l22.714.004c-2.254-21.961-10.578-42.125-23.262-58.785l-15.246 15.238-16.496-16.5 15.824-15.816c-17.78-15.641-40.34-25.973-65.207-28.523l.004 22.715h-23.332l-.008-22.801c-23.254 2.215-44.527 11.227-61.805 25.03l59.164 59.157a34.87 34.87 0 0 1 14.316-3.055c19.328 0 35 15.672 35 35 0 19.332-15.672 35-35 35-19.332 0-35-15.668-35-35 0-5.7 1.364-11.082 3.782-15.84l-58.973-58.945c-14.637 17.445-24.281 39.22-26.734 63.125l23.59-.004v23.332l-23.672.012c1.937 20.242 9.09 39.23 20.617 55.555l21.973-21.965 16.496 16.496L279 389.849l-14.527 15.273c-27.773-26.406-43.68-62.45-43.68-101.35 0-77.56 62.875-140.44 140.44-140.44zm-148.31-23.332 29.164 29.168 14.586-14.586v43.75h-43.75l15.996-14.582-30.582-29.168z" fill="#000000"/>
</svg>